<?xml version="1.0"?><svg width="640" height="480" xmlns="http://www.w3.org/2000/svg">
 <title>
  <FONT>
   <FONT>lingkar</FONT>
  </FONT>
 </title>
 <metadata id="metadata1497">
  <FONT>
   <FONT>gambar / svg + xml</FONT>
  </FONT>
 </metadata>
 <g>
  <title>
   <FONT>
    <FONT>Layer 1</FONT>
   </FONT>
  </title>
  <g id="g1499">
   <g id="g1404">
    <path id="path1406" d="m307.70459,64.689163c0,3.319969 2.069794,8.533653 6.444824,13.748352c0.520874,0.715248 1.039459,1.186844 1.804779,1.899979l0,3.557343l0,0.948425l0,3.318932c-2.835144,-1.422104 -9.024078,-4.504707 -16.242249,-5.927856c1.028107,3.318924 -0.250183,6.16626 -4.389771,6.16626c-3.094482,0 -5.411072,-1.660507 -8.507813,-1.660507c-3.346924,0 -5.411041,1.660507 -5.411041,3.55526c0,1.894722 0.261597,4.032066 1.801392,6.401543c-0.515137,0 -7.215851,-2.133156 -7.215851,-6.401543c0,-4.033119 2.064117,-6.874199 5.158569,-8.532616c-16.76651,2.132103 -30.176987,9.482071 -42.296692,17.543076c0.515182,3.554199 1.803696,6.874199 3.611923,9.484184c0.511749,-5.456291 3.871201,-11.856781 11.864929,-11.856781c6.706375,0 13.412766,1.898911 14.956009,11.145699c-1.804779,-0.713135 -3.862091,-1.421043 -6.70639,-1.421043c-2.316559,0 -4.899261,3.081573 -4.899261,5.448944c0,4.507866 4.645691,9.01152 12.380127,9.01152c19.854187,0 25.531342,-13.752556 25.265228,-22.049881l3.100159,0c0,18.96936 -14.956024,27.027237 -28.365387,27.027237c-19.854156,0 -31.45752,-10.19207 -35.063797,-24.180946c-17.034882,11.61731 -31.984085,23.710396 -50.811295,23.710396c-8.246231,0 -15.989777,-2.846291 -15.989777,-11.38517c0,-8.532608 5.676025,-10.430489 10.312592,-10.430489c5.416748,0 9.550674,3.555252 9.550674,6.874191c0,4.032074 -4.386383,5.692596 -6.969086,4.744164c1.289642,-1.187866 1.804825,-2.369461 1.804825,-4.506813c0,-1.894722 -2.83519,-4.263153 -5.41333,-4.263153c-4.637726,0 -6.969086,3.316856 -6.969086,7.5821c0,5.456268 4.386368,8.065193 10.577591,8.065193c13.148895,0 17.531891,-24.658829 30.944641,-24.658829c6.453903,0 7.743561,4.50576 7.743561,6.164207c0,1.424194 -0.524277,4.979454 -0.524277,4.979454c4.90155,-3.081596 9.79744,-6.637901 15.214142,-10.434685c-0.253586,-1.89579 -0.511734,-3.79052 -0.511734,-5.926819c0,-1.417908 0,-3.082603 0.259293,-4.501579c-11.867218,1.181595 -17.278275,-6.643097 -17.278275,-11.856766c0,-5.215759 3.606232,-9.01152 9.283401,-9.01152c3.611908,0 6.444809,3.081581 6.444809,6.164192c0,2.373642 -1.026932,4.033112 -4.123688,4.033112c-2.319977,0 -3.609634,-1.901016 -3.609634,-3.082619c0,-2.846291 2.831757,-2.609962 2.831757,-3.559425c-0.761993,-0.944237 -2.055023,-0.472649 -3.094467,-0.472649c-2.055023,0 -5.151749,2.136292 -5.151749,5.455223c0,6.873146 7.484222,10.195221 15.214157,9.720482c3.60965,-17.307808 20.628632,-27.269833 37.13588,-27.269833c13.407043,0 24.497528,4.982582 34.298401,13.043591c-1.289642,-1.899963 -2.327972,-4.505753 -2.327972,-7.587318c0,-3.79681 1.554626,-6.880466 5.160858,-6.880466c4.643433,0 6.959991,2.846294 7.999451,5.927868c-4.651337,-1.421062 -9.291351,-0.707916 -9.291351,2.138382zm-98.769302,46.470276c-2.832901,0 -6.191208,4.505753 -10.051025,9.489388c2.581543,-1.187866 9.022934,-4.269424 12.367615,-6.879417c0,-1.187866 -0.250198,-2.60997 -2.316589,-2.60997zm31.9841,-24.41935c-1.554611,3.081558 -2.319992,6.166267 -2.319992,8.768929c8.51123,-5.449982 17.78775,-10.906265 28.628052,-14.462563c-8.5112,1.423149 -18.576996,3.796806 -26.30806,5.693634zm37.647659,-24.897224c1.804779,1.89579 2.058411,2.133156 2.058411,4.270485c0,3.555252 -2.058411,5.923676 -7.986938,5.923676c-2.844269,0 -5.676025,-0.945282 -7.996033,-0.945282c-9.797424,0 -17.281677,5.928909 -21.668076,12.330444c10.063583,-2.609955 24.50325,-6.40049 41.784927,-6.40049c-1.039459,-0.715225 -1.554626,-1.902046 -1.554626,-3.562561c0,-2.132118 1.039459,-3.78949 4.124878,-4.976318c-0.250244,4.269447 2.582672,5.927864 8.258698,5.927864c4.386383,0 5.675995,1.422104 5.675995,3.317894l-0.523132,1.424187c5.422455,1.422104 11.35553,3.316841 13.931396,4.269424c-12.381287,-13.516212 -24.246277,-21.343002 -36.105499,-21.579323zm36.103241,-15.174652c-0.520874,-1.89579 -2.063019,-6.16523 -4.645721,-6.16523c-5.926239,0 -11.342957,3.794712 -17.270294,3.794712c-4.386414,0 -10.065826,-3.081573 -10.065826,-7.586277c0,-1.902069 1.554596,-3.081573 3.611877,-3.324165c-0.253601,0.713142 -0.515167,1.422096 -0.515167,2.136292c0,1.423141 1.026978,2.611015 2.582703,2.611015c5.148346,0 9.285675,-3.561523 14.437439,-3.561523c1.542084,0 3.09787,0.477859 4.637756,0.950508c-3.094513,-2.136292 -7.469513,-4.2684 -11.340759,-4.978401c-12.897583,-1.898924 -29.654968,-8.300472 -27.850128,-20.630926c0.511719,-4.028939 4.124756,-5.922631 7.219238,-5.451037c-1.542114,1.186827 -3.094482,2.132107 -3.094482,4.033118c0,6.874189 9.538177,7.111549 14.952667,7.111549c5.675995,0 17.543213,-1.186827 17.543213,7.115734c0,2.841066 -2.581543,4.978401 -5.411041,5.449993c7.731079,3.555256 15.462128,8.301516 17.270325,16.598848l-2.061798,1.89579zm140.800964,78.957985c-18.828339,0 -33.777527,-12.093094 -50.799927,-23.710396c-3.359497,13.988853 -15.211945,24.180939 -35.08197,24.180939c-13.145508,0 -28.361938,-8.058922 -28.361938,-27.027245l3.103516,0c0,8.297333 5.658966,22.049896 25.259552,22.049896c7.748077,0 12.383575,-4.504715 12.383575,-9.011536c0,-2.367371 -2.579315,-5.448944 -4.897064,-5.448944c-2.834015,0 -4.901581,0.707916 -6.705231,1.421059c1.542145,-9.246788 8.248505,-11.145721 14.954895,-11.145721c8.255249,0 11.352051,6.400513 11.864929,11.856758c1.80484,-2.60994 3.092194,-5.929932 3.609619,-9.484138c-12.11969,-8.061028 -25.526764,-15.412025 -42.288696,-17.543091c3.085327,1.657379 5.151733,4.498459 5.151733,8.532608c0,4.269455 -6.700684,6.40155 -7.219299,6.40155c1.542145,-2.369469 1.80481,-4.506828 1.80481,-6.40155c0,-1.894722 -1.80481,-3.55526 -5.414429,-3.55526c-3.0979,0 -5.41449,1.660538 -8.505493,1.660538c-4.128235,0 -5.420135,-2.848404 -4.389862,-6.16629c-7.218109,1.424194 -13.407013,4.505753 -16.23996,5.927879l0,-3.318932l0,-0.948433l0,-3.55735l2.053894,-1.899948c4.382965,-5.214737 6.193512,-10.428398 6.193512,-13.748367c0,-2.846313 -4.638885,-3.55946 -9.286835,-2.137348c1.039429,-3.081566 3.354889,-5.92786 7.994934,-5.92786c3.609589,0 5.157379,3.083664 5.157379,6.880463c0,3.081566 -1.030304,5.68734 -2.316559,7.587303c10.053314,-8.060993 20.881073,-13.043583 34.288208,-13.043583c16.772217,0 33.526184,9.96204 37.142639,27.26984c7.731049,0.473686 15.211884,-2.848389 15.211884,-9.720482c0,-3.318924 -2.835144,-5.455215 -5.151703,-5.455215c-1.042877,0 -2.329132,-0.472633 -3.09787,0.472633c0,0.950516 2.835114,0.71315 2.835114,3.559425c0,1.181595 -1.030304,3.082626 -3.609589,3.082626c-3.09787,0 -4.128235,-1.65947 -4.128235,-4.033119c0,-3.081566 2.835175,-6.164177 6.444763,-6.164177c5.676086,0 9.285736,3.794708 9.285736,9.011528c0,5.213654 -5.41449,13.038338 -17.27832,11.856758c0.25589,1.417923 0.25589,3.082611 0.25589,4.501556c0,2.136307 0,4.031059 -0.25589,5.926842c5.164246,3.797852 10.309174,7.353096 14.9617,10.434662c0,0 -0.512939,-3.555244 -0.512939,-4.979439c0,-1.657372 1.542175,-6.164185 7.732208,-6.164185c13.412781,0 17.795715,24.658813 30.941254,24.658813c6.187714,0 10.578735,-2.608925 10.578735,-8.065193c0,-4.265266 -2.329102,-7.582092 -6.969116,-7.582092c-2.579254,0 -5.414459,2.368431 -5.414459,4.263153c0,2.137329 0.518616,3.318939 1.80484,4.506805c-2.579254,0.949471 -6.96225,-0.712105 -6.96225,-4.744179c0,-3.318932 4.382996,-6.874176 9.54837,-6.874176c4.633148,0 10.309174,1.897881 10.309174,10.430489c0.00116,8.537842 -7.729858,11.384125 -15.985229,11.384125l0,0zm-111.9216,-95.081047c-3.871185,0.710009 -8.248474,2.842113 -11.340668,4.978397c1.542084,-0.472645 3.092194,-0.9505 4.634277,-0.9505c5.163147,0 9.291382,3.561523 14.437439,3.561523c1.810516,0 2.583801,-1.186832 2.583801,-2.611023c0,-0.714188 0,-1.423138 -0.518524,-2.136284c2.073212,0.242588 3.616455,1.422096 3.616455,3.324162c0,4.504715 -5.41449,7.586285 -10.06015,7.586285c-5.933044,0 -11.090454,-3.794716 -17.27829,-3.794716c-2.579315,0 -4.121429,4.26944 -4.634308,6.165234l-2.070923,-1.895794c1.809357,-8.297329 9.541534,-13.043589 17.282837,-16.598841c-2.846558,-0.472639 -5.420135,-2.609978 -5.420135,-5.449993c0,-8.302558 12.120819,-7.11573 17.540955,-7.11573c5.41449,0 14.950348,-0.237369 14.950348,-7.111555c0,-1.901012 -1.286255,-2.846292 -3.091064,-4.033119c3.091064,-0.471594 6.700684,1.422102 7.219238,5.451042c1.80484,12.33045 -14.955994,18.731991 -27.851288,20.630917l0,-0.000004zm31.460968,40.546616c-2.317719,0 -5.151764,0.945267 -7.993744,0.945267c-5.66925,0 -7.992645,-2.368416 -7.992645,-5.923668c0,-2.137341 0.518616,-2.374699 2.06073,-4.270489c-11.859283,0.237366 -23.72876,8.063099 -36.094116,21.578289c2.567902,-0.951561 8.505493,-2.846298 13.919922,-4.269417l-0.512878,-1.424194c0,-1.895805 1.280579,-3.317909 5.664642,-3.317909c5.674896,0 8.510071,-1.658409 8.261017,-5.927849c3.0979,1.186821 4.121399,2.845245 4.121399,4.976303c0,1.660515 -0.511749,2.847343 -1.547791,3.562569c17.278259,0 31.716858,3.79052 42.031738,6.400497c-4.641144,-6.400497 -12.12085,-12.329399 -21.918274,-12.329399zm23.721985,15.648338c-7.731049,-1.895775 -17.785522,-4.2705 -26.295593,-5.692589c10.827789,3.555252 20.113464,9.01152 28.624664,14.46257c0,-2.603722 -0.778992,-5.688431 -2.329071,-8.769981zm31.98407,24.419357c-2.066345,0 -2.316559,1.422081 -2.316559,2.60997c3.341248,2.609985 9.797424,5.691544 12.365356,6.879417c-3.859894,-4.983635 -7.21814,-9.489388 -10.048798,-9.489388z" fill="#000000"/>
   </g>
   <g id="g1408">
    <path id="path1410" d="m70.412186,131.720306c-0.727844,-2.650742 -2.884079,-8.618347 -6.493702,-8.618347c-8.284889,0 -15.857857,5.305679 -24.142754,5.305679c-6.132061,0 -14.071232,-4.309174 -14.071232,-10.605087c0,-2.658089 2.174431,-4.308128 5.050543,-4.646935c-0.354815,0.997559 -0.721008,1.987801 -0.721008,2.986412c0,1.988853 1.437483,3.648315 3.609636,3.648315c7.198811,0 12.981743,-4.978401 20.183964,-4.978401c2.156231,0 4.328388,0.668182 6.481205,1.329041c-4.324974,-2.98642 -10.441128,-5.966537 -15.853302,-6.958878c-18.03002,-2.654938 -41.455151,-11.603729 -38.933861,-28.841469c0.716473,-5.632988 5.765879,-8.278511 10.090847,-7.620796c-2.156234,1.658424 -4.324968,2.979095 -4.324968,5.638229c0,9.609627 13.334286,9.941093 20.902704,9.941093c7.935749,0 24.526001,-1.659462 24.526001,9.946335c0,3.971436 -3.609646,6.9589 -7.563873,7.618706c10.807316,4.971085 21.614635,11.605812 24.141613,23.20536l-2.881813,2.650742z" fill="#000000"/>
   </g>
   <g id="g1412">
    <path id="path1414" d="m567.040283,129.069565c2.525879,-11.599548 13.329895,-18.234276 24.140564,-23.20536c-3.955383,-0.659805 -7.563904,-3.64727 -7.563904,-7.618706c0,-11.605797 16.587952,-9.946335 24.52594,-9.946335c7.563843,0 20.900513,-0.331467 20.900513,-9.941093c0,-2.658089 -2.167603,-3.978745 -4.323792,-5.638229c4.323792,-0.658768 9.374268,1.987808 10.088501,7.620796c2.525879,17.236687 -20.899292,26.186531 -38.933838,28.841469c-5.408752,0.99234 -11.526123,3.972458 -15.849915,6.958878c2.150513,-0.661903 4.323792,-1.329041 6.480042,-1.329041c7.201111,0 12.984009,4.978401 20.18512,4.978401c2.167664,0 3.60968,-1.659462 3.60968,-3.648315c0,-0.998611 -0.369629,-1.988853 -0.721008,-2.986412c2.876038,0.338806 5.050476,1.987801 5.050476,4.646935c0,6.295914 -7.939148,10.605087 -14.074585,10.605087c-8.284912,0 -15.854492,-5.305679 -24.140503,-5.305679c-3.60968,0 -5.764771,5.968643 -6.49823,8.618347l-2.875061,-2.650742z" fill="#000000"/>
   </g>
   <g id="g1416">
    <path id="path1418" d="m550.924377,137.02182c-7.843689,5.287918 -20.703735,12.209167 -63.259735,8.268066c-11.6091,-1.058228 -23.115814,-2.691544 -34.826141,-4.325912c-7.320465,-0.960968 -14.741058,-1.82782 -22.168427,-2.500183c-5.229095,-0.481018 -18.404175,-1.731628 -23.318329,-1.249573c-5.127777,0.481003 -7.111176,2.11644 -7.219208,2.981171c0,0.19136 -0.101227,0.578247 0.108032,0.769623c0.108063,0.576157 0.524292,0.962021 0.524292,1.345764c-0.108032,0.866852 -2.513336,1.730576 -4.705963,1.539215c-1.464783,-0.096207 -2.929535,-0.962021 -2.828369,-2.116409c0.209259,-1.055069 3.871185,-5.191742 12.656525,-6.345093c7.111206,-0.863708 15.26532,0 43.188293,2.500183c34.711243,3.173599 58.036346,3.268738 75.708099,-2.209488c12.96582,-3.944229 32.626587,-14.134224 34.503113,-28.654282c1.780945,-12.97773 -10.661743,-19.227654 -21.119934,-20.189644c-21.644226,-1.924042 -43.395294,15.576164 -45.069336,27.884666c-0.941681,6.825035 5.437195,10.574799 12.233398,11.152c7.219299,0.673393 13.073914,-2.018143 18.196045,-5.479294c9.202698,-6.249901 10.251221,-10.771355 10.559387,-12.884644c0.316162,-2.210526 -0.101135,-4.037292 -1.250977,-5.383064c-0.946167,-1.058212 -1.67395,-1.154419 -2.929565,-1.250618c-0.524292,0 -1.357849,-0.098297 -1.256592,-0.866859c0.10791,-1.057167 1.256592,-0.960953 1.679688,-0.865799c3.44928,0.28756 7.839111,4.133507 6.998657,10.478592c-1.459106,10.481705 -15.890808,19.422119 -31.371094,17.980164c-12.650848,-1.153374 -18.398499,-9.710037 -17.248749,-17.881874c1.882141,-14.230423 24.467987,-28.077087 46.112213,-26.057915c19.452698,1.731613 32.526489,16.058235 30.429443,32.209541c-1.257813,9.133865 -6.69043,15.959938 -14.324768,21.151665z" fill="#000000"/>
   </g>
   <g id="g1420">
    <path id="path1422" d="m75.765236,117.265205c-2.093643,-16.151443 10.976768,-30.479172 30.432907,-32.209785c21.644218,-2.018929 44.230019,11.826309 46.115608,26.057243c1.146332,8.172539 -4.604752,16.729164 -17.254395,17.882561c-15.480309,1.442215 -29.908653,-7.49958 -31.371155,-17.979935c-0.839256,-6.345123 3.552811,-10.191994 7.002083,-10.478745c0.42305,-0.096291 1.571686,-0.191521 1.6763,0.866081c0.10463,0.767143 -0.730118,0.866646 -1.254379,0.866646c-1.256668,0.096283 -1.986778,0.192581 -2.930702,1.248596c-1.14978,1.345413 -1.56601,3.173347 -1.250977,5.382736c0.309319,2.115768 1.354439,6.636139 10.559395,12.8871c5.122154,3.460121 10.976738,6.150429 18.193794,5.47905c6.796234,-0.578293 13.177322,-4.327805 12.233429,-11.152794c-1.674057,-12.306694 -23.425156,-29.806747 -45.069351,-27.884636c-10.459335,0.961853 -22.898613,7.211754 -21.119896,20.191422c1.878693,14.518204 21.537224,24.71022 34.506493,28.652313c17.671753,5.47905 40.992279,5.383286 75.707809,2.211517c27.923019,-2.499847 36.076019,-3.364899 43.188705,-2.499847c8.783066,1.1539 12.444992,5.288574 12.652695,6.345657c0.104752,1.154434 -1.359695,2.021576 -2.825851,2.116791c-2.194611,0.190994 -4.598114,-0.674545 -4.705704,-1.540649c0,-0.383545 0.41716,-0.767151 0.524185,-1.345413c0.208878,-0.191513 0.107071,-0.576157 0.107071,-0.76767c-0.107071,-0.865585 -2.093964,-2.500412 -7.218567,-2.982391c-4.914017,-0.480911 -18.091507,0.768738 -23.317978,1.249664c-7.427429,0.673508 -14.84906,1.540131 -22.168884,2.500397c-11.70903,1.635376 -23.216766,3.2686 -34.822403,4.327789c-42.559433,3.942108 -55.421753,-2.982376 -63.263107,-8.268814c-7.632141,-5.191772 -13.070465,-12.019958 -14.327126,-21.154884l0,0z" fill="#000000"/>
   </g>
  </g>
  <g transform="rotate(179.772 319.663 401.307)" id="svg_1">
   <g id="svg_2">
    <path id="svg_3" d="m307.181152,388.685181c0,3.319977 2.073029,8.533661 6.454895,13.748383c0.521698,0.71524 1.041077,1.186829 1.807617,1.899963l0,3.557343l0,0.948425l0,3.318939c-2.8396,-1.422119 -9.038208,-4.5047 -16.26767,-5.927856c1.029724,3.318909 -0.250549,6.166229 -4.396606,6.166229c-3.099365,0 -5.419556,-1.660492 -8.521149,-1.660492c-3.352142,0 -5.419495,1.660492 -5.419495,3.555267c0,1.894714 0.261993,4.032074 1.80423,6.40155c-0.515961,0 -7.227173,-2.133148 -7.227173,-6.40155c0,-4.033112 2.067383,-6.874207 5.166656,-8.532623c-16.792725,2.132111 -30.224182,9.482086 -42.362854,17.543091c0.516022,3.554199 1.806534,6.874176 3.617599,9.484161c0.512543,-5.456268 3.877243,-11.85675 11.883484,-11.85675c6.716843,0 13.433701,1.898895 14.979385,11.145691c-1.807617,-0.713135 -3.868134,-1.421051 -6.716888,-1.421051c-2.32016,0 -4.906921,3.081573 -4.906921,5.448944c0,4.507874 4.652954,9.011536 12.399506,9.011536c19.885223,0 25.571259,-13.752563 25.304749,-22.049896l3.10498,0c0,18.96936 -14.979401,27.027252 -28.409729,27.027252c-19.885208,0 -31.506729,-10.192078 -35.118637,-24.180969c-17.061523,11.61731 -32.034103,23.710388 -50.890762,23.710388c-8.259125,0 -16.014786,-2.846252 -16.014786,-11.385132c0,-8.532623 5.684906,-10.430511 10.328735,-10.430511c5.425201,0 9.565598,3.555267 9.565598,6.874176c0,4.032074 -4.39325,5.692596 -6.97998,4.744202c1.291656,-1.187866 1.807648,-2.369476 1.807648,-4.506836c0,-1.894714 -2.839615,-4.263153 -5.421799,-4.263153c-4.644974,0 -6.97998,3.316864 -6.97998,7.582123c0,5.456238 4.393234,8.065186 10.594131,8.065186c13.169464,0 17.559311,-24.658844 30.993042,-24.658844c6.463989,0 7.755661,4.505768 7.755661,6.164215c0,1.424194 -0.525101,4.979431 -0.525101,4.979431c4.909225,-3.081573 9.812775,-6.637878 15.237961,-10.434662c-0.253998,-1.895782 -0.512558,-3.790527 -0.512558,-5.926819c0,-1.417908 0,-3.082611 0.25972,-4.501587c-11.885788,1.18161 -17.305298,-6.643097 -17.305298,-11.85675c0,-5.215759 3.611862,-9.011536 9.297913,-9.011536c3.617538,0 6.454895,3.081573 6.454895,6.164185c0,2.373657 -1.028549,4.033112 -4.130142,4.033112c-2.323624,0 -3.61528,-1.901001 -3.61528,-3.082611c0,-2.846283 2.836182,-2.609955 2.836182,-3.559418c-0.763184,-0.944244 -2.058243,-0.472656 -3.099304,-0.472656c-2.058243,0 -5.159805,2.136292 -5.159805,5.455231c0,6.873138 7.495926,10.195221 15.237946,9.72049c3.61528,-17.307831 20.660904,-27.269836 37.193939,-27.269836c13.428009,0 24.535858,4.982574 34.352051,13.043579c-1.291656,-1.899963 -2.331604,-4.505768 -2.331604,-7.587311c0,-3.796814 1.557068,-6.880493 5.168915,-6.880493c4.650696,0 6.970886,2.846344 8.011963,5.927887c-4.65863,-1.421082 -9.305878,-0.707916 -9.305878,2.138367zm-98.923767,46.470276c-2.837326,0 -6.200882,4.505768 -10.066727,9.48941c2.585571,-1.187866 9.037033,-4.26944 12.386948,-6.879425c0,-1.187866 -0.250595,-2.609985 -2.320221,-2.609985zm32.034149,-24.419342c-1.557068,3.081543 -2.323669,6.16629 -2.323669,8.768951c8.524567,-5.449982 17.815598,-10.906281 28.672852,-14.462555c-8.524506,1.423126 -18.606064,3.796783 -26.349182,5.693604zm37.706482,-24.897217c1.807617,1.895813 2.061646,2.133148 2.061646,4.270477c0,3.555267 -2.061646,5.923676 -7.999451,5.923676c-2.848694,0 -5.684875,-0.945282 -8.008514,-0.945282c-9.812714,0 -17.308701,5.928925 -21.70195,12.330444c10.07933,-2.609955 24.54155,-6.400482 41.850266,-6.400482c-1.041077,-0.71524 -1.557037,-1.902039 -1.557037,-3.562561c0,-2.132111 1.041077,-3.78949 4.131287,-4.976318c-0.250641,4.26944 2.586731,5.927856 8.271637,5.927856c4.393219,0 5.684875,1.422119 5.684875,3.317902l-0.523956,1.424194c5.430939,1.422089 11.373291,3.316833 13.953186,4.269409c-12.400635,-13.516205 -24.28418,-21.342987 -36.161987,-21.579315zm36.159729,-15.174652c-0.521698,-1.895813 -2.066254,-6.165253 -4.652985,-6.165253c-5.935516,0 -11.360718,3.794739 -17.297333,3.794739c-4.39325,0 -10.081543,-3.081573 -10.081543,-7.586273c0,-1.902069 1.557037,-3.081604 3.617523,-3.324158c-0.253998,0.713135 -0.515991,1.422089 -0.515991,2.136292c0,1.423126 1.028595,2.610992 2.586761,2.610992c5.156403,0 9.300201,-3.561523 14.460022,-3.561523c1.544464,0 3.102692,0.477875 4.644989,0.950531c-3.099365,-2.136292 -7.481201,-4.268433 -11.35849,-4.978424c-12.917725,-1.898926 -29.701355,-8.300476 -27.893677,-20.63092c0.512543,-4.028931 4.131195,-5.922607 7.23053,-5.45105c-1.544525,1.186859 -3.099335,2.132141 -3.099335,4.033142c0,6.874176 9.553101,7.111542 14.976044,7.111542c5.684875,0 17.570648,-1.186829 17.570648,7.115723c0,2.841064 -2.585541,4.978394 -5.419464,5.450012c7.743134,3.555237 15.486298,8.301514 17.297333,16.598816l-2.065033,1.895813zm141.021179,78.957977c-18.857819,0 -33.830353,-12.093079 -50.879395,-23.710388c-3.364746,13.988861 -15.235718,24.180939 -35.136841,24.180939c-13.166077,0 -28.406311,-8.058929 -28.406311,-27.027222l3.108398,0c0,8.297302 5.667816,22.049866 25.299042,22.049866c7.760193,0 12.402924,-4.5047 12.402924,-9.011536c0,-2.367371 -2.583313,-5.448944 -4.904694,-5.448944c-2.83844,0 -4.909241,0.707916 -6.715698,1.421051c1.544525,-9.246765 8.261383,-11.145691 14.978241,-11.145691c8.268188,0 11.369843,6.400513 11.883484,11.85675c1.807678,-2.609955 3.097076,-5.929932 3.615295,-9.484131c-12.138641,-8.061035 -25.566681,-15.412048 -42.354858,-17.543121c3.090179,1.657379 5.15979,4.498474 5.15979,8.532623c0,4.26947 -6.711151,6.40155 -7.230591,6.40155c1.544586,-2.369476 1.807648,-4.506836 1.807648,-6.40155c0,-1.894714 -1.807648,-3.555267 -5.422882,-3.555267c-3.102753,0 -5.422974,1.660553 -8.518799,1.660553c-4.134705,0 -5.428619,-2.848419 -4.396729,-6.16629c-7.229401,1.424194 -13.428009,4.505737 -16.26535,5.927887l0,-3.318939l0,-0.948456l0,-3.557343l2.057098,-1.899933c4.389801,-5.214752 6.203217,-10.428406 6.203217,-13.748383c0,-2.846313 -4.646179,-3.559448 -9.301392,-2.137329c1.041077,-3.081604 3.360138,-5.927887 8.007446,-5.927887c3.615234,0 5.165436,3.083679 5.165436,6.880463c0,3.081573 -1.031921,5.687347 -2.32016,7.587311c10.069,-8.060974 20.913727,-13.043579 34.341797,-13.043579c16.798462,0 33.578644,9.962067 37.200745,27.269836c7.743134,0.473694 15.235687,-2.848389 15.235687,-9.720459c0,-3.318939 -2.8396,-5.455231 -5.15976,-5.455231c-1.044525,0 -2.332794,-0.472626 -3.102722,0.472626c0,0.950531 2.839569,0.713165 2.839569,3.559448c0,1.18158 -1.031921,3.082611 -3.615265,3.082611c-3.102722,0 -4.134705,-1.659454 -4.134705,-4.033142c0,-3.081543 2.83963,-6.164154 6.454865,-6.164154c5.684967,0 9.300262,3.794708 9.300262,9.011536c0,5.213654 -5.422974,13.03833 -17.305359,11.85675c0.256287,1.417938 0.256287,3.082611 0.256287,4.501556c0,2.136292 0,4.031067 -0.256287,5.926849c5.172363,3.797852 10.325317,7.353088 14.985107,10.434662c0,0 -0.513733,-3.555267 -0.513733,-4.979462c0,-1.657349 1.544586,-6.164154 7.744324,-6.164154c13.433746,0 17.823517,24.658783 30.989624,24.658783c6.197388,0 10.595276,-2.608887 10.595276,-8.065155c0,-4.265289 -2.332764,-7.582123 -6.980011,-7.582123c-2.583282,0 -5.422943,2.368439 -5.422943,4.263153c0,2.137329 0.51944,3.31897 1.807678,4.506805c-2.583313,0.949463 -6.973145,-0.712097 -6.973145,-4.744171c0,-3.318939 4.389832,-6.874176 9.563324,-6.874176c4.64035,0 10.325287,1.897888 10.325287,10.430511c0.00116,8.537811 -7.741974,11.384094 -16.010223,11.384094l0,0zm-112.09668,-95.081024c-3.877228,0.709991 -8.261353,2.842102 -11.358398,4.978394c1.544525,-0.472656 3.097046,-0.9505 4.641541,-0.9505c5.171234,0 9.305908,3.561523 14.460022,3.561523c1.813324,0 2.58786,-1.186829 2.58786,-2.611023c0,-0.714203 0,-1.423157 -0.519348,-2.136292c2.076447,0.242584 3.622101,1.422089 3.622101,3.324158c0,4.5047 -5.422974,7.586304 -10.075897,7.586304c-5.942291,0 -11.107788,-3.794739 -17.305298,-3.794739c-2.583344,0 -4.127869,4.26944 -4.641541,6.165253l-2.074188,-1.895813c1.812225,-8.297333 9.556458,-13.043579 17.309875,-16.598846c-2.851013,-0.472656 -5.428619,-2.609955 -5.428619,-5.449982c0,-8.302582 12.139771,-7.115723 17.56839,-7.115723c5.422943,0 14.973755,-0.237396 14.973755,-7.111542c0,-1.901031 -1.2883,-2.846313 -3.095886,-4.033142c3.095886,-0.471588 6.711121,1.422089 7.230499,5.45105c1.807648,12.330444 -14.979401,18.731995 -27.894867,20.63092l0,0zm31.510193,40.5466c-2.32135,0 -5.159821,0.945251 -8.006256,0.945251c-5.678101,0 -8.005127,-2.368408 -8.005127,-5.923645c0,-2.13736 0.519409,-2.374695 2.063965,-4.270477c-11.877838,0.237366 -23.7659,8.06308 -36.150574,21.578278c2.571899,-0.951569 8.518799,-2.846313 13.941681,-4.26944l-0.513702,-1.424194c0,-1.895782 1.282593,-3.317871 5.673523,-3.317871c5.683777,0 8.523376,-1.658447 8.273926,-5.927856c3.102753,1.186798 4.127838,2.845245 4.127838,4.976288c0,1.660492 -0.512512,2.847351 -1.550201,3.562592c17.305298,0 31.766479,3.790497 42.097473,6.400482c-4.648376,-6.400482 -12.139801,-12.329407 -21.952545,-12.329407zm23.759094,15.648346c-7.743164,-1.895782 -17.813324,-4.270508 -26.336731,-5.692596c10.844727,3.555267 20.144928,9.011536 28.669434,14.462585c0,-2.603729 -0.780212,-5.688446 -2.332703,-8.769989zm32.034088,24.419373c-2.06958,0 -2.32019,1.422058 -2.32019,2.609955c3.346497,2.609985 9.812744,5.691559 12.384674,6.879425c-3.865906,-4.983643 -7.229401,-9.48938 -10.064484,-9.48938z" fill="#000000"/>
   </g>
   <g id="svg_4">
    <path id="svg_5" d="m69.517647,455.716339c-0.728989,-2.650726 -2.888603,-8.618347 -6.503868,-8.618347c-8.297844,0 -15.882652,5.305695 -24.180515,5.305695c-6.141647,0 -14.093225,-4.309174 -14.093225,-10.605103c0,-2.658081 2.177826,-4.308136 5.058435,-4.646942c-0.35537,0.997589 -0.722132,1.987823 -0.722132,2.98642c0,1.988861 1.439726,3.648315 3.615274,3.648315c7.210075,0 13.002048,-4.978424 20.215538,-4.978424c2.159603,0 4.335152,0.668213 6.491333,1.329071c-4.33173,-2.98645 -10.457451,-5.966553 -15.878094,-6.958862c-18.058216,-2.654968 -41.519977,-11.60376 -38.99475,-28.841492c0.71759,-5.632996 5.774898,-8.278503 10.106629,-7.620789c-2.1596,1.658417 -4.331732,2.979095 -4.331732,5.638214c0,9.60965 13.355145,9.941101 20.935392,9.941101c7.94816,0 24.564363,-1.659454 24.564363,9.94632c0,3.971436 -3.615299,6.958923 -7.575703,7.618713c10.824215,4.9711 21.64843,11.605804 24.179359,23.205383l-2.886307,2.650726z" fill="#000000"/>
   </g>
   <g id="svg_6">
    <path id="svg_7" d="m566.922424,453.065613c2.529846,-11.599579 13.350708,-18.234283 24.178284,-23.205383c-3.961548,-0.65979 -7.575684,-3.647278 -7.575684,-7.618713c0,-11.605774 16.613892,-9.94632 24.56427,-9.94632c7.575684,0 20.933167,-0.331451 20.933167,-9.941101c0,-2.658081 -2.170959,-3.978729 -4.330505,-5.638214c4.330505,-0.658783 9.388916,1.987793 10.104248,7.620789c2.529846,17.236694 -20.931946,26.186523 -38.99469,28.841492c-5.417175,0.99231 -11.544128,3.972412 -15.874756,6.958862c2.153931,-0.661926 4.330627,-1.329071 6.490234,-1.329071c7.212341,0 13.004333,4.978424 20.216675,4.978424c2.171082,0 3.615295,-1.659454 3.615295,-3.648315c0,-0.998596 -0.370178,-1.988831 -0.722107,-2.98642c2.880554,0.338806 5.058411,1.987823 5.058411,4.646942c0,6.295929 -7.951599,10.605103 -14.096619,10.605103c-8.297913,0 -15.879272,-5.305695 -24.178223,-5.305695c-3.615356,0 -5.773804,5.968658 -6.508423,8.618347l-2.879578,-2.650726z" fill="#000000"/>
   </g>
   <g id="svg_8">
    <path id="svg_9" d="m550.781311,461.017853c-7.855957,5.287933 -20.736084,12.209167 -63.358673,8.268066c-11.627228,-1.058228 -23.151947,-2.691528 -34.880585,-4.325897c-7.33194,-0.960999 -14.76413,-1.82782 -22.203125,-2.500183c-5.237274,-0.481049 -18.432922,-1.731628 -23.354767,-1.249573c-5.135834,0.480988 -7.122314,2.116425 -7.23053,2.981171c0,0.191345 -0.101349,0.578217 0.108215,0.769623c0.108215,0.576141 0.525116,0.962006 0.525116,1.345764c-0.108215,0.866821 -2.517273,1.73056 -4.713318,1.539185c-1.467072,-0.096191 -2.934143,-0.962006 -2.832794,-2.116394c0.209564,-1.055054 3.877228,-5.191742 12.6763,-6.345093c7.122345,-0.863708 15.289215,0 43.255829,2.500183c34.765533,3.173584 58.127167,3.268738 75.826508,-2.209473c12.986084,-3.944244 32.677673,-14.134247 34.557068,-28.654297c1.783752,-12.977722 -10.678406,-19.227661 -21.152893,-20.189636c-21.678101,-1.924042 -43.463196,15.576141 -45.139862,27.884644c-0.943115,6.825043 5.445679,10.574829 12.252533,11.152008c7.230591,0.673401 13.09436,-2.018127 18.224487,-5.479279c9.217102,-6.249908 10.267273,-10.771362 10.575928,-12.884644c0.31665,-2.210541 -0.101318,-4.037292 -1.252991,-5.383057c-0.947571,-1.058228 -1.676575,-1.154449 -2.934082,-1.25061c-0.525146,0 -1.359985,-0.098328 -1.258606,-0.866882c0.108093,-1.057159 1.258606,-0.960938 1.682312,-0.865784c3.454712,0.287537 7.85144,4.133484 7.009583,10.478577c-1.461365,10.481689 -15.915588,19.422119 -31.420074,17.980164c-12.670654,-1.153381 -18.427338,-9.710022 -17.275757,-17.881866c1.885071,-14.230438 24.506256,-28.077087 46.184296,-26.057922c19.483154,1.731598 32.577393,16.058228 30.477051,32.209564c-1.259766,9.13385 -6.700867,15.9599 -14.347168,21.151642z" fill="#000000"/>
   </g>
   <g id="svg_10">
    <path id="svg_11" d="m74.879059,441.261261c-2.096916,-16.151459 10.993942,-30.479218 30.480507,-32.209808c21.678062,-2.018921 44.299202,11.826294 46.187737,26.057251c1.148117,8.172546 -4.611954,16.729156 -17.281372,17.882568c-15.504524,1.4422 -29.955444,-7.499603 -31.420235,-17.97995c-0.840561,-6.345123 3.558372,-10.191986 7.013039,-10.47876c0.423706,-0.096283 1.574135,-0.191528 1.678925,0.866119c0.10479,0.76712 -0.731262,0.866638 -1.256348,0.866638c-1.258629,0.096252 -1.989883,0.192566 -2.935287,1.248596c-1.151581,1.345398 -1.568459,3.17334 -1.252922,5.382721c0.309807,2.115753 1.356544,6.636139 10.575897,12.887085c5.130173,3.460144 10.993912,6.150452 18.222252,5.479065c6.80687,-0.578278 13.197937,-4.327789 12.252563,-11.152802c-1.676666,-12.306671 -23.4618,-29.806732 -45.139839,-27.884644c-10.475693,0.961884 -22.934425,7.211761 -21.152924,20.191437c1.88163,14.518219 21.570908,24.710236 34.560463,28.652313c17.699402,5.479065 41.056381,5.383301 75.826218,2.211517c27.96669,-2.499847 36.132446,-3.364899 43.256241,-2.499847c8.796799,1.1539 12.464462,5.288574 12.67247,6.345673c0.104919,1.154419 -1.361801,2.021576 -2.830246,2.116791c-2.198059,0.190979 -4.605286,-0.674561 -4.713058,-1.540649c0,-0.383545 0.417816,-0.767151 0.524994,-1.345428c0.209183,-0.191498 0.107208,-0.576172 0.107208,-0.76767c-0.107208,-0.86557 -2.097214,-2.500427 -7.229828,-2.982391c-4.921707,-0.480927 -18.119812,0.768738 -23.354446,1.249664c-7.439041,0.673523 -14.872284,1.540131 -22.203552,2.500397c-11.727356,1.635376 -23.253082,3.268585 -34.876877,4.327789c-42.625992,3.942108 -55.50843,-2.982361 -63.362045,-8.268799c-7.644081,-5.191772 -13.090912,-12.019958 -14.349533,-21.154877l0,0z" fill="#000000"/>
   </g>
  </g>
 </g>
</svg>